<mxfile host="app.diagrams.net" modified="2021-02-12T16:43:02.245Z" agent="5.0 (Windows NT 10.0; Win64; x64) AppleWebKit/537.36 (KHTML, like Gecko) Chrome/88.0.4324.150 Safari/537.36" etag="KWbX7RO6-ucSXhSvYvgT" version="14.3.1" type="github">
  <diagram id="WdS2INs172YmWACp49tR" name="Page-1">
    <mxGraphModel dx="2370" dy="1343" grid="1" gridSize="10" guides="1" tooltips="1" connect="1" arrows="1" fold="1" page="1" pageScale="1" pageWidth="850" pageHeight="1100" math="0" shadow="0">
      <root>
        <mxCell id="0" />
        <mxCell id="1" parent="0" />
        <mxCell id="CfmGchRuIDZGUutBZVmM-1" value="&lt;span style=&quot;font-size: 30px&quot;&gt;PLAYER&lt;/span&gt;" style="rounded=0;whiteSpace=wrap;html=1;" vertex="1" parent="1">
          <mxGeometry x="115" y="310" width="260" height="70" as="geometry" />
        </mxCell>
        <mxCell id="CfmGchRuIDZGUutBZVmM-9" value="&lt;font style=&quot;font-size: 20px&quot;&gt;name&lt;/font&gt;" style="ellipse;whiteSpace=wrap;html=1;" vertex="1" parent="1">
          <mxGeometry y="200" width="150" height="70" as="geometry" />
        </mxCell>
        <mxCell id="CfmGchRuIDZGUutBZVmM-15" value="&lt;font style=&quot;font-size: 20px&quot;&gt;number&lt;/font&gt;" style="ellipse;whiteSpace=wrap;html=1;" vertex="1" parent="1">
          <mxGeometry x="330" y="190" width="150" height="70" as="geometry" />
        </mxCell>
        <mxCell id="CfmGchRuIDZGUutBZVmM-16" value="&lt;font style=&quot;font-size: 20px&quot;&gt;&lt;u&gt;ID&lt;/u&gt;&lt;/font&gt;" style="ellipse;whiteSpace=wrap;html=1;" vertex="1" parent="1">
          <mxGeometry x="170" y="200" width="150" height="70" as="geometry" />
        </mxCell>
        <mxCell id="CfmGchRuIDZGUutBZVmM-18" value="&lt;font style=&quot;font-size: 30px&quot;&gt;TEAM&lt;/font&gt;" style="rounded=0;whiteSpace=wrap;html=1;" vertex="1" parent="1">
          <mxGeometry x="737.5" y="310" width="230" height="75" as="geometry" />
        </mxCell>
        <mxCell id="CfmGchRuIDZGUutBZVmM-19" value="Position" style="ellipse;whiteSpace=wrap;html=1;" vertex="1" parent="1">
          <mxGeometry x="190" y="810" width="140" height="80" as="geometry" />
        </mxCell>
        <mxCell id="CfmGchRuIDZGUutBZVmM-20" value="&lt;font style=&quot;font-size: 20px&quot;&gt;PLAYS_FOR&lt;/font&gt;" style="rhombus;whiteSpace=wrap;html=1;" vertex="1" parent="1">
          <mxGeometry x="460" y="278.75" width="160" height="137.5" as="geometry" />
        </mxCell>
        <mxCell id="CfmGchRuIDZGUutBZVmM-22" value="" style="endArrow=none;html=1;entryX=0.5;entryY=0;entryDx=0;entryDy=0;exitX=0.5;exitY=1;exitDx=0;exitDy=0;" edge="1" parent="1" source="CfmGchRuIDZGUutBZVmM-9" target="CfmGchRuIDZGUutBZVmM-1">
          <mxGeometry width="50" height="50" relative="1" as="geometry">
            <mxPoint x="190" y="570" as="sourcePoint" />
            <mxPoint x="240" y="520" as="targetPoint" />
          </mxGeometry>
        </mxCell>
        <mxCell id="CfmGchRuIDZGUutBZVmM-23" value="" style="endArrow=none;html=1;entryX=0.5;entryY=0;entryDx=0;entryDy=0;exitX=0.5;exitY=1;exitDx=0;exitDy=0;" edge="1" parent="1" source="CfmGchRuIDZGUutBZVmM-16" target="CfmGchRuIDZGUutBZVmM-1">
          <mxGeometry width="50" height="50" relative="1" as="geometry">
            <mxPoint x="190" y="570" as="sourcePoint" />
            <mxPoint x="240" y="520" as="targetPoint" />
          </mxGeometry>
        </mxCell>
        <mxCell id="CfmGchRuIDZGUutBZVmM-24" value="" style="endArrow=none;html=1;entryX=0.5;entryY=0;entryDx=0;entryDy=0;exitX=0.5;exitY=1;exitDx=0;exitDy=0;" edge="1" parent="1" source="CfmGchRuIDZGUutBZVmM-15" target="CfmGchRuIDZGUutBZVmM-1">
          <mxGeometry width="50" height="50" relative="1" as="geometry">
            <mxPoint x="190" y="570" as="sourcePoint" />
            <mxPoint x="240" y="520" as="targetPoint" />
          </mxGeometry>
        </mxCell>
        <mxCell id="CfmGchRuIDZGUutBZVmM-25" value="" style="endArrow=none;html=1;entryX=1;entryY=0.5;entryDx=0;entryDy=0;exitX=0;exitY=0.5;exitDx=0;exitDy=0;" edge="1" parent="1" source="CfmGchRuIDZGUutBZVmM-20" target="CfmGchRuIDZGUutBZVmM-1">
          <mxGeometry width="50" height="50" relative="1" as="geometry">
            <mxPoint x="190" y="570" as="sourcePoint" />
            <mxPoint x="240" y="520" as="targetPoint" />
          </mxGeometry>
        </mxCell>
        <mxCell id="CfmGchRuIDZGUutBZVmM-26" value="" style="endArrow=none;html=1;entryX=1;entryY=0.5;entryDx=0;entryDy=0;exitX=0;exitY=0.5;exitDx=0;exitDy=0;" edge="1" parent="1" source="CfmGchRuIDZGUutBZVmM-18" target="CfmGchRuIDZGUutBZVmM-20">
          <mxGeometry width="50" height="50" relative="1" as="geometry">
            <mxPoint x="550" y="570" as="sourcePoint" />
            <mxPoint x="600" y="520" as="targetPoint" />
          </mxGeometry>
        </mxCell>
        <mxCell id="CfmGchRuIDZGUutBZVmM-27" value="&lt;span style=&quot;font-size: 30px&quot;&gt;GAME&lt;/span&gt;" style="rounded=0;whiteSpace=wrap;html=1;" vertex="1" parent="1">
          <mxGeometry x="440" y="635" width="200" height="60" as="geometry" />
        </mxCell>
        <mxCell id="CfmGchRuIDZGUutBZVmM-28" value="&lt;span style=&quot;font-size: 20px&quot;&gt;PARTICIPATE_IN&lt;/span&gt;" style="rhombus;whiteSpace=wrap;html=1;" vertex="1" parent="1">
          <mxGeometry x="755" y="610" width="195" height="110" as="geometry" />
        </mxCell>
        <mxCell id="CfmGchRuIDZGUutBZVmM-29" value="" style="endArrow=none;html=1;entryX=0.5;entryY=1;entryDx=0;entryDy=0;exitX=0.5;exitY=0;exitDx=0;exitDy=0;" edge="1" parent="1" source="CfmGchRuIDZGUutBZVmM-28" target="CfmGchRuIDZGUutBZVmM-18">
          <mxGeometry width="50" height="50" relative="1" as="geometry">
            <mxPoint x="550" y="550" as="sourcePoint" />
            <mxPoint x="600" y="500" as="targetPoint" />
          </mxGeometry>
        </mxCell>
        <mxCell id="CfmGchRuIDZGUutBZVmM-30" value="" style="endArrow=none;html=1;exitX=0;exitY=0.5;exitDx=0;exitDy=0;entryX=1;entryY=0.5;entryDx=0;entryDy=0;" edge="1" parent="1" source="CfmGchRuIDZGUutBZVmM-28" target="CfmGchRuIDZGUutBZVmM-27">
          <mxGeometry width="50" height="50" relative="1" as="geometry">
            <mxPoint x="550" y="550" as="sourcePoint" />
            <mxPoint x="600" y="500" as="targetPoint" />
          </mxGeometry>
        </mxCell>
        <mxCell id="CfmGchRuIDZGUutBZVmM-31" value="&lt;font style=&quot;font-size: 20px&quot;&gt;PLAYS_A&lt;/font&gt;" style="rhombus;whiteSpace=wrap;html=1;" vertex="1" parent="1">
          <mxGeometry x="172.5" y="621.25" width="147.5" height="87.5" as="geometry" />
        </mxCell>
        <mxCell id="CfmGchRuIDZGUutBZVmM-32" value="" style="endArrow=none;html=1;entryX=0.5;entryY=1;entryDx=0;entryDy=0;exitX=0.5;exitY=0;exitDx=0;exitDy=0;" edge="1" parent="1" source="CfmGchRuIDZGUutBZVmM-31" target="CfmGchRuIDZGUutBZVmM-1">
          <mxGeometry width="50" height="50" relative="1" as="geometry">
            <mxPoint x="840" y="550" as="sourcePoint" />
            <mxPoint x="890" y="500" as="targetPoint" />
          </mxGeometry>
        </mxCell>
        <mxCell id="CfmGchRuIDZGUutBZVmM-33" value="" style="endArrow=none;html=1;exitX=1;exitY=0.5;exitDx=0;exitDy=0;entryX=0;entryY=0.5;entryDx=0;entryDy=0;" edge="1" parent="1" source="CfmGchRuIDZGUutBZVmM-31" target="CfmGchRuIDZGUutBZVmM-27">
          <mxGeometry width="50" height="50" relative="1" as="geometry">
            <mxPoint x="840" y="550" as="sourcePoint" />
            <mxPoint x="890" y="500" as="targetPoint" />
          </mxGeometry>
        </mxCell>
        <mxCell id="CfmGchRuIDZGUutBZVmM-35" value="" style="endArrow=none;html=1;exitX=0.5;exitY=1;exitDx=0;exitDy=0;entryX=0.5;entryY=0;entryDx=0;entryDy=0;" edge="1" parent="1" source="CfmGchRuIDZGUutBZVmM-31" target="CfmGchRuIDZGUutBZVmM-19">
          <mxGeometry width="50" height="50" relative="1" as="geometry">
            <mxPoint x="840" y="550" as="sourcePoint" />
            <mxPoint x="890" y="500" as="targetPoint" />
          </mxGeometry>
        </mxCell>
      </root>
    </mxGraphModel>
  </diagram>
</mxfile>
